G04*
G04 #@! TF.GenerationSoftware,Altium Limited,Altium Designer,25.1.2 (22)*
G04*
G04 Layer_Color=32896*
%FSLAX24Y24*%
%MOIN*%
G70*
G04*
G04 #@! TF.SameCoordinates,545F9C5F-1BCE-4890-BA7A-5F1D09497C19*
G04*
G04*
G04 #@! TF.FilePolarity,Positive*
G04*
G01*
G75*
%ADD10C,0.0079*%
G36*
X28844Y45284D02*
X28959D01*
Y45278D01*
X29019D01*
Y45273D01*
X29062D01*
Y45267D01*
X29123D01*
Y45262D01*
X29145D01*
Y45256D01*
X29166D01*
Y45251D01*
X29188D01*
Y45245D01*
X29210D01*
Y45240D01*
X29232D01*
Y45234D01*
X29248D01*
Y45229D01*
X29270D01*
Y45223D01*
X29287D01*
Y45218D01*
X29303D01*
Y45212D01*
X29320D01*
Y45207D01*
X29330D01*
Y45202D01*
X29341D01*
Y45196D01*
X29352D01*
Y45191D01*
X29363D01*
Y45185D01*
X29374D01*
Y45180D01*
X29391D01*
Y45174D01*
X29402D01*
Y45169D01*
X29407D01*
Y45163D01*
X29418D01*
Y45158D01*
X29429D01*
Y45152D01*
X29440D01*
Y45147D01*
X29445D01*
Y45141D01*
X29456D01*
Y45136D01*
X29462D01*
Y45130D01*
X29473D01*
Y45125D01*
X29478D01*
Y45120D01*
X29484D01*
Y45114D01*
X29489D01*
Y45109D01*
X29500D01*
Y45103D01*
X29505D01*
Y45098D01*
X29511D01*
Y45092D01*
X29516D01*
Y45087D01*
X29527D01*
Y45081D01*
X29533D01*
Y45076D01*
X29538D01*
Y45070D01*
X29544D01*
Y45065D01*
X29549D01*
Y45059D01*
X29555D01*
Y45054D01*
X29560D01*
Y45048D01*
X29566D01*
Y45043D01*
X29571D01*
Y45037D01*
X29577D01*
Y45027D01*
X29582D01*
Y45021D01*
X29588D01*
Y45016D01*
X29593D01*
Y45010D01*
X29598D01*
Y44999D01*
X29604D01*
Y44994D01*
X29609D01*
Y44988D01*
X29615D01*
Y44977D01*
X29620D01*
Y44966D01*
X29626D01*
Y44961D01*
X29631D01*
Y44955D01*
X29637D01*
Y44945D01*
X29642D01*
Y44939D01*
X29648D01*
Y44928D01*
X29653D01*
Y44917D01*
X29659D01*
Y44906D01*
X29664D01*
Y44895D01*
X29670D01*
Y44884D01*
X29675D01*
Y44873D01*
X29680D01*
Y44862D01*
X29686D01*
Y44852D01*
X29691D01*
Y44835D01*
X29697D01*
Y44824D01*
X29702D01*
Y44802D01*
X29708D01*
Y44786D01*
X29713D01*
Y44770D01*
X29719D01*
Y44753D01*
X29724D01*
Y44737D01*
X29730D01*
Y44715D01*
X29735D01*
Y44698D01*
X29741D01*
Y44671D01*
X29746D01*
Y44622D01*
X29752D01*
Y44589D01*
X29757D01*
Y44540D01*
X29762D01*
Y44491D01*
X29768D01*
Y44359D01*
X29773D01*
Y44343D01*
X29768D01*
Y44255D01*
X29762D01*
Y44223D01*
X29757D01*
Y44195D01*
X29768D01*
Y44201D01*
X29784D01*
Y44206D01*
X29861D01*
Y44201D01*
X29872D01*
Y44195D01*
X29883D01*
Y44190D01*
X29894D01*
Y44184D01*
X29905D01*
Y44179D01*
X29910D01*
Y44173D01*
X29916D01*
Y44163D01*
X29921D01*
Y44157D01*
X29927D01*
Y44152D01*
X29932D01*
Y44146D01*
X29938D01*
Y44141D01*
X29943D01*
Y44130D01*
X29948D01*
Y44119D01*
X29954D01*
Y44102D01*
X29959D01*
Y44070D01*
X29965D01*
Y43938D01*
X29959D01*
Y43884D01*
X29954D01*
Y43851D01*
X29948D01*
Y43829D01*
X29943D01*
Y43807D01*
X29938D01*
Y43785D01*
X29932D01*
Y43769D01*
X29927D01*
Y43752D01*
X29921D01*
Y43736D01*
X29916D01*
Y43709D01*
X29910D01*
Y43692D01*
X29905D01*
Y43681D01*
X29899D01*
Y43670D01*
X29894D01*
Y43659D01*
X29888D01*
Y43648D01*
X29883D01*
Y43637D01*
X29877D01*
Y43627D01*
X29872D01*
Y43610D01*
X29866D01*
Y43599D01*
X29861D01*
Y43588D01*
X29855D01*
Y43583D01*
X29850D01*
Y43572D01*
X29845D01*
Y43561D01*
X29839D01*
Y43555D01*
X29834D01*
Y43545D01*
X29828D01*
Y43534D01*
X29823D01*
Y43523D01*
X29817D01*
Y43517D01*
X29812D01*
Y43512D01*
X29806D01*
Y43501D01*
X29801D01*
Y43495D01*
X29795D01*
Y43484D01*
X29790D01*
Y43479D01*
X29784D01*
Y43468D01*
X29779D01*
Y43463D01*
X29773D01*
Y43457D01*
X29768D01*
Y43452D01*
X29762D01*
Y43446D01*
X29757D01*
Y43441D01*
X29752D01*
Y43430D01*
X29746D01*
Y43424D01*
X29741D01*
Y43419D01*
X29735D01*
Y43413D01*
X29730D01*
Y43408D01*
X29724D01*
Y43402D01*
X29719D01*
Y43397D01*
X29713D01*
Y43391D01*
X29708D01*
Y43386D01*
X29702D01*
Y43380D01*
X29691D01*
Y43375D01*
X29686D01*
Y43370D01*
X29675D01*
Y43364D01*
X29670D01*
Y43359D01*
X29664D01*
Y43353D01*
X29653D01*
Y43348D01*
X29648D01*
Y43342D01*
X29637D01*
Y43337D01*
X29626D01*
Y43320D01*
X29620D01*
Y43282D01*
X29615D01*
Y43255D01*
X29609D01*
Y43238D01*
X29604D01*
Y43216D01*
X29598D01*
Y43200D01*
X29593D01*
Y43189D01*
X29588D01*
Y43173D01*
X29582D01*
Y43162D01*
X29577D01*
Y43140D01*
X29571D01*
Y43123D01*
X29566D01*
Y43113D01*
X29560D01*
Y43102D01*
X29555D01*
Y43096D01*
X29549D01*
Y43085D01*
X29544D01*
Y43074D01*
X29538D01*
Y43063D01*
X29533D01*
Y43047D01*
X29527D01*
Y43036D01*
X29522D01*
Y43025D01*
X29516D01*
Y43020D01*
X29511D01*
Y43014D01*
X29505D01*
Y43003D01*
X29500D01*
Y42992D01*
X29495D01*
Y42987D01*
X29489D01*
Y42970D01*
X29484D01*
Y42965D01*
X29478D01*
Y42959D01*
X29473D01*
Y42948D01*
X29467D01*
Y42943D01*
X29462D01*
Y42937D01*
X29456D01*
Y42927D01*
X29451D01*
Y42921D01*
X29445D01*
Y42910D01*
X29440D01*
Y42905D01*
X29434D01*
Y42899D01*
X29429D01*
Y42894D01*
X29423D01*
Y42883D01*
X29418D01*
Y42877D01*
X29413D01*
Y42872D01*
X29407D01*
Y42866D01*
X29402D01*
Y42861D01*
X29396D01*
Y42850D01*
X29391D01*
Y42845D01*
X29385D01*
Y42839D01*
X29380D01*
Y42834D01*
X29374D01*
Y42828D01*
X29369D01*
Y42823D01*
X29363D01*
Y42817D01*
X29358D01*
Y42812D01*
X29352D01*
Y42806D01*
X29347D01*
Y42801D01*
X29341D01*
Y42795D01*
X29336D01*
Y42790D01*
X29330D01*
Y42784D01*
X29325D01*
Y42779D01*
X29320D01*
Y42773D01*
X29314D01*
Y42768D01*
X29309D01*
Y42762D01*
X29303D01*
Y42757D01*
X29298D01*
Y42752D01*
X29287D01*
Y42746D01*
X29281D01*
Y42741D01*
X29276D01*
Y42735D01*
X29270D01*
Y42730D01*
X29265D01*
Y42724D01*
X29259D01*
Y42719D01*
X29248D01*
Y42713D01*
X29243D01*
Y42708D01*
X29237D01*
Y42702D01*
X29232D01*
Y42697D01*
X29221D01*
Y42691D01*
X29216D01*
Y42686D01*
X29205D01*
Y42680D01*
X29199D01*
Y42675D01*
X29194D01*
Y42670D01*
X29183D01*
Y42664D01*
X29177D01*
Y42659D01*
X29166D01*
Y42653D01*
X29161D01*
Y42648D01*
X29150D01*
Y42642D01*
X29145D01*
Y42637D01*
X29134D01*
Y42631D01*
X29128D01*
Y42626D01*
X29117D01*
Y42620D01*
X29112D01*
Y42615D01*
X29095D01*
Y42609D01*
X29090D01*
Y42604D01*
X29079D01*
Y42598D01*
X29068D01*
Y42593D01*
X29057D01*
Y42587D01*
X29052D01*
Y42582D01*
X29041D01*
Y42577D01*
X29024D01*
Y42571D01*
X29008D01*
Y42566D01*
X28997D01*
Y42560D01*
X28986D01*
Y42555D01*
X28975D01*
Y42549D01*
X28959D01*
Y42544D01*
X28942D01*
Y42538D01*
X28926D01*
Y42533D01*
X28893D01*
Y42527D01*
X28871D01*
Y42522D01*
X28833D01*
Y42516D01*
X28767D01*
Y42522D01*
X28729D01*
Y42527D01*
X28707D01*
Y42533D01*
X28674D01*
Y42538D01*
X28658D01*
Y42544D01*
X28641D01*
Y42549D01*
X28625D01*
Y42555D01*
X28614D01*
Y42560D01*
X28603D01*
Y42566D01*
X28592D01*
Y42571D01*
X28576D01*
Y42577D01*
X28559D01*
Y42582D01*
X28548D01*
Y42587D01*
X28543D01*
Y42593D01*
X28532D01*
Y42598D01*
X28521D01*
Y42604D01*
X28510D01*
Y42609D01*
X28505D01*
Y42615D01*
X28488D01*
Y42620D01*
X28483D01*
Y42626D01*
X28472D01*
Y42631D01*
X28466D01*
Y42637D01*
X28455D01*
Y42642D01*
X28450D01*
Y42648D01*
X28439D01*
Y42653D01*
X28434D01*
Y42659D01*
X28423D01*
Y42664D01*
X28417D01*
Y42670D01*
X28406D01*
Y42675D01*
X28401D01*
Y42680D01*
X28395D01*
Y42686D01*
X28384D01*
Y42691D01*
X28379D01*
Y42697D01*
X28368D01*
Y42702D01*
X28363D01*
Y42708D01*
X28357D01*
Y42713D01*
X28352D01*
Y42719D01*
X28341D01*
Y42724D01*
X28335D01*
Y42730D01*
X28330D01*
Y42735D01*
X28324D01*
Y42741D01*
X28319D01*
Y42746D01*
X28313D01*
Y42752D01*
X28302D01*
Y42757D01*
X28297D01*
Y42762D01*
X28291D01*
Y42768D01*
X28286D01*
Y42773D01*
X28280D01*
Y42779D01*
X28275D01*
Y42784D01*
X28270D01*
Y42790D01*
X28264D01*
Y42795D01*
X28259D01*
Y42801D01*
X28253D01*
Y42806D01*
X28248D01*
Y42812D01*
X28242D01*
Y42817D01*
X28237D01*
Y42823D01*
X28231D01*
Y42828D01*
X28226D01*
Y42834D01*
X28220D01*
Y42839D01*
X28215D01*
Y42845D01*
X28209D01*
Y42850D01*
X28204D01*
Y42861D01*
X28198D01*
Y42866D01*
X28193D01*
Y42872D01*
X28187D01*
Y42877D01*
X28182D01*
Y42883D01*
X28177D01*
Y42894D01*
X28171D01*
Y42899D01*
X28166D01*
Y42905D01*
X28160D01*
Y42910D01*
X28155D01*
Y42921D01*
X28149D01*
Y42927D01*
X28144D01*
Y42937D01*
X28138D01*
Y42943D01*
X28133D01*
Y42948D01*
X28127D01*
Y42959D01*
X28122D01*
Y42965D01*
X28116D01*
Y42970D01*
X28111D01*
Y42987D01*
X28105D01*
Y42992D01*
X28100D01*
Y43003D01*
X28095D01*
Y43014D01*
X28089D01*
Y43020D01*
X28084D01*
Y43025D01*
X28078D01*
Y43036D01*
X28073D01*
Y43047D01*
X28067D01*
Y43063D01*
X28062D01*
Y43074D01*
X28056D01*
Y43085D01*
X28051D01*
Y43096D01*
X28045D01*
Y43102D01*
X28040D01*
Y43113D01*
X28034D01*
Y43123D01*
X28029D01*
Y43140D01*
X28023D01*
Y43162D01*
X28018D01*
Y43173D01*
X28012D01*
Y43189D01*
X28007D01*
Y43200D01*
X28002D01*
Y43216D01*
X27996D01*
Y43238D01*
X27991D01*
Y43255D01*
X27985D01*
Y43282D01*
X27980D01*
Y43320D01*
X27974D01*
Y43342D01*
X27952D01*
Y43348D01*
X27947D01*
Y43353D01*
X27941D01*
Y43359D01*
X27930D01*
Y43364D01*
X27925D01*
Y43370D01*
X27920D01*
Y43375D01*
X27909D01*
Y43380D01*
X27903D01*
Y43386D01*
X27898D01*
Y43391D01*
X27892D01*
Y43397D01*
X27887D01*
Y43402D01*
X27881D01*
Y43408D01*
X27876D01*
Y43413D01*
X27870D01*
Y43419D01*
X27865D01*
Y43424D01*
X27859D01*
Y43430D01*
X27854D01*
Y43435D01*
X27848D01*
Y43441D01*
X27843D01*
Y43452D01*
X27838D01*
Y43457D01*
X27832D01*
Y43463D01*
X27827D01*
Y43468D01*
X27821D01*
Y43473D01*
X27816D01*
Y43484D01*
X27810D01*
Y43490D01*
X27805D01*
Y43501D01*
X27799D01*
Y43506D01*
X27794D01*
Y43517D01*
X27788D01*
Y43523D01*
X27783D01*
Y43528D01*
X27777D01*
Y43539D01*
X27772D01*
Y43550D01*
X27766D01*
Y43561D01*
X27761D01*
Y43572D01*
X27755D01*
Y43583D01*
X27750D01*
Y43588D01*
X27745D01*
Y43599D01*
X27739D01*
Y43610D01*
X27734D01*
Y43616D01*
X27728D01*
Y43637D01*
X27723D01*
Y43648D01*
X27717D01*
Y43659D01*
X27712D01*
Y43670D01*
X27706D01*
Y43681D01*
X27701D01*
Y43692D01*
X27695D01*
Y43709D01*
X27690D01*
Y43720D01*
X27684D01*
Y43752D01*
X27679D01*
Y43769D01*
X27673D01*
Y43785D01*
X27668D01*
Y43807D01*
X27662D01*
Y43823D01*
X27657D01*
Y43845D01*
X27652D01*
Y43867D01*
X27646D01*
Y43905D01*
X27641D01*
Y43966D01*
X27635D01*
Y44064D01*
X27641D01*
Y44102D01*
X27646D01*
Y44119D01*
X27652D01*
Y44130D01*
X27657D01*
Y44141D01*
X27662D01*
Y44146D01*
X27668D01*
Y44152D01*
X27673D01*
Y44157D01*
X27679D01*
Y44163D01*
X27684D01*
Y44173D01*
X27690D01*
Y44179D01*
X27695D01*
Y44184D01*
X27706D01*
Y44190D01*
X27717D01*
Y44195D01*
X27728D01*
Y44201D01*
X27739D01*
Y44206D01*
X27816D01*
Y44201D01*
X27832D01*
Y44195D01*
X27843D01*
Y44217D01*
X27838D01*
Y44272D01*
X27832D01*
Y44436D01*
X27838D01*
Y44496D01*
X27843D01*
Y44545D01*
X27848D01*
Y44578D01*
X27854D01*
Y44627D01*
X27859D01*
Y44649D01*
X27865D01*
Y44671D01*
X27870D01*
Y44688D01*
X27876D01*
Y44704D01*
X27881D01*
Y44720D01*
X27887D01*
Y44737D01*
X27892D01*
Y44753D01*
X27898D01*
Y44775D01*
X27903D01*
Y44786D01*
X27909D01*
Y44802D01*
X27914D01*
Y44813D01*
X27920D01*
Y44824D01*
X27925D01*
Y44835D01*
X27930D01*
Y44846D01*
X27936D01*
Y44857D01*
X27941D01*
Y44873D01*
X27947D01*
Y44884D01*
X27952D01*
Y44890D01*
X27958D01*
Y44901D01*
X27963D01*
Y44906D01*
X27969D01*
Y44917D01*
X27974D01*
Y44923D01*
X27980D01*
Y44934D01*
X27985D01*
Y44945D01*
X27991D01*
Y44950D01*
X27996D01*
Y44961D01*
X28002D01*
Y44966D01*
X28007D01*
Y44972D01*
X28012D01*
Y44977D01*
X28018D01*
Y44988D01*
X28023D01*
Y44994D01*
X28029D01*
Y44999D01*
X28034D01*
Y45005D01*
X28040D01*
Y45010D01*
X28045D01*
Y45016D01*
X28051D01*
Y45021D01*
X28056D01*
Y45027D01*
X28062D01*
Y45037D01*
X28067D01*
Y45043D01*
X28073D01*
Y45048D01*
X28078D01*
Y45054D01*
X28089D01*
Y45059D01*
X28095D01*
Y45065D01*
X28100D01*
Y45070D01*
X28105D01*
Y45076D01*
X28111D01*
Y45081D01*
X28116D01*
Y45087D01*
X28122D01*
Y45092D01*
X28133D01*
Y45098D01*
X28138D01*
Y45103D01*
X28144D01*
Y45109D01*
X28155D01*
Y45114D01*
X28160D01*
Y45120D01*
X28166D01*
Y45125D01*
X28171D01*
Y45130D01*
X28182D01*
Y45136D01*
X28187D01*
Y45141D01*
X28198D01*
Y45147D01*
X28209D01*
Y45152D01*
X28220D01*
Y45158D01*
X28231D01*
Y45163D01*
X28237D01*
Y45169D01*
X28248D01*
Y45174D01*
X28253D01*
Y45180D01*
X28270D01*
Y45185D01*
X28280D01*
Y45191D01*
X28297D01*
Y45196D01*
X28308D01*
Y45202D01*
X28324D01*
Y45207D01*
X28335D01*
Y45212D01*
X28346D01*
Y45218D01*
X28357D01*
Y45223D01*
X28373D01*
Y45229D01*
X28401D01*
Y45234D01*
X28417D01*
Y45240D01*
X28439D01*
Y45245D01*
X28455D01*
Y45251D01*
X28472D01*
Y45256D01*
X28499D01*
Y45262D01*
X28527D01*
Y45267D01*
X28570D01*
Y45273D01*
X28620D01*
Y45278D01*
X28669D01*
Y45284D01*
X28773D01*
Y45289D01*
X28844D01*
Y45284D01*
D02*
G37*
G36*
X25400Y42100D02*
X25395Y42093D01*
X25387Y42098D01*
X25386Y42103D01*
X25393Y42109D01*
X25400Y42100D01*
D02*
G37*
G36*
X24836Y41968D02*
X24831Y41962D01*
X24824Y41963D01*
X24826Y41971D01*
X24833Y41972D01*
X24836Y41968D01*
D02*
G37*
G36*
X25101Y41963D02*
X25096Y41954D01*
X25090Y41952D01*
X25086Y41958D01*
Y41967D01*
X25094Y41972D01*
X25101Y41963D01*
D02*
G37*
G36*
X24680Y42075D02*
X24690Y42063D01*
Y42049D01*
Y42040D01*
X24682Y42029D01*
X24672Y42017D01*
X24668Y42002D01*
X24661Y41990D01*
X24652Y41978D01*
X24646Y41967D01*
X24643Y41934D01*
X24634Y41912D01*
X24613Y41849D01*
X24608Y41831D01*
X24600Y41816D01*
X24594Y41799D01*
X24588Y41783D01*
X24582Y41770D01*
X24576Y41755D01*
Y41740D01*
X24572Y41724D01*
X24566Y41713D01*
X24561Y41707D01*
X24549Y41703D01*
X24539Y41704D01*
X24530Y41712D01*
X24523Y41721D01*
X24522Y41731D01*
Y41742D01*
X24526Y41749D01*
X24522Y41761D01*
X24521Y41775D01*
X24516Y41794D01*
X24514Y41814D01*
X24506Y41832D01*
X24500Y41851D01*
X24495Y41865D01*
X24491Y41878D01*
X24483Y41896D01*
X24476Y41912D01*
X24472Y41927D01*
X24467Y41936D01*
Y41943D01*
X24458Y41955D01*
X24450Y41968D01*
X24444Y41979D01*
X24435Y41991D01*
X24427Y41997D01*
X24421Y42010D01*
Y42017D01*
X24428Y42025D01*
X24435D01*
X24438Y42019D01*
X24445Y42010D01*
X24455Y41997D01*
X24462Y41989D01*
X24473Y41979D01*
X24478Y41967D01*
X24486Y41956D01*
X24492Y41943D01*
X24500Y41930D01*
Y41918D01*
X24509Y41903D01*
X24519Y41879D01*
X24522Y41874D01*
X24533Y41848D01*
X24539Y41834D01*
X24544Y41830D01*
X24547Y41837D01*
Y41845D01*
X24542Y41856D01*
X24543Y41871D01*
X24545Y41887D01*
X24547Y41901D01*
X24550Y41918D01*
X24554Y41932D01*
Y41945D01*
X24556Y41960D01*
X24554Y41972D01*
X24547Y41980D01*
X24545Y41990D01*
X24550Y42002D01*
X24552Y42017D01*
X24557Y42027D01*
X24577Y42037D01*
X24589Y42049D01*
X24600Y42062D01*
X24614Y42071D01*
X24629Y42077D01*
X24647Y42080D01*
X24667Y42081D01*
X24680Y42075D01*
D02*
G37*
G36*
X25311Y42436D02*
X25325Y42433D01*
X25334Y42430D01*
X25344Y42421D01*
X25353Y42409D01*
Y42401D01*
Y42386D01*
Y42372D01*
X25357Y42359D01*
Y42348D01*
X25364Y42338D01*
X25362Y42328D01*
X25354Y42321D01*
X25360Y42311D01*
Y42298D01*
X25357Y42283D01*
X25356Y42267D01*
Y42251D01*
X25354Y42237D01*
X25350Y42226D01*
X25353Y42213D01*
Y42203D01*
X25354Y42190D01*
X25356Y42180D01*
X25354Y42170D01*
X25356Y42155D01*
X25357Y42138D01*
Y42121D01*
X25360Y42108D01*
X25357Y42092D01*
X25356Y42079D01*
X25357Y42065D01*
X25360Y42044D01*
X25362Y42028D01*
Y42005D01*
X25363Y41987D01*
Y41949D01*
X25362Y41938D01*
X25363Y41920D01*
X25367Y41905D01*
X25368Y41887D01*
X25372Y41872D01*
X25370Y41855D01*
X25372Y41836D01*
X25376Y41817D01*
Y41802D01*
X25379Y41789D01*
X25383Y41779D01*
X25379Y41768D01*
X25385Y41757D01*
X25386Y41745D01*
Y41732D01*
X25387Y41721D01*
X25383Y41712D01*
X25370Y41709D01*
X25353Y41712D01*
X25338Y41707D01*
X25323Y41703D01*
X25307Y41702D01*
X25286D01*
X25269Y41700D01*
X25240D01*
X25225Y41710D01*
X25207Y41721D01*
X25187Y41727D01*
X25173Y41736D01*
X25155Y41740D01*
X25140D01*
X25116Y41745D01*
X25096Y41743D01*
X25079D01*
X25063Y41748D01*
X25050Y41752D01*
X25034D01*
X25025Y41759D01*
X25021Y41769D01*
X25014Y41780D01*
X25013Y41794D01*
Y41807D01*
X25015Y41821D01*
X25017Y41832D01*
X25028Y41843D01*
X25034Y41854D01*
X25045Y41862D01*
X25059Y41864D01*
X25070Y41858D01*
X25085Y41851D01*
X25087Y41841D01*
X25101Y41834D01*
X25117Y41827D01*
X25139Y41821D01*
X25157Y41818D01*
X25177Y41821D01*
X25192Y41822D01*
X25202Y41818D01*
X25221Y41811D01*
X25235Y41810D01*
X25246Y41807D01*
X25262D01*
X25276Y41813D01*
X25287D01*
X25307Y41810D01*
X25325Y41808D01*
X25336Y41804D01*
X25345Y41806D01*
X25348Y41811D01*
Y41825D01*
X25345Y41836D01*
Y41843D01*
X25342Y41854D01*
X25339Y41871D01*
X25338Y41890D01*
X25339Y41903D01*
X25333Y41920D01*
X25331Y41935D01*
X25330Y41949D01*
X25326Y41962D01*
Y41978D01*
X25323Y41987D01*
X25321Y41999D01*
Y42017D01*
X25316Y42034D01*
X25315Y42052D01*
X25309Y42066D01*
Y42083D01*
X25305Y42116D01*
X25303Y42133D01*
X25302Y42146D01*
X25296Y42156D01*
X25293Y42166D01*
X25289Y42180D01*
Y42194D01*
X25284Y42224D01*
X25279Y42240D01*
Y42256D01*
X25274Y42271D01*
X25272Y42285D01*
X25269Y42298D01*
X25263Y42311D01*
X25261Y42331D01*
X25254Y42343D01*
X25242Y42354D01*
X25239Y42363D01*
X25235Y42377D01*
X25237Y42387D01*
X25242Y42403D01*
X25250Y42416D01*
X25263Y42425D01*
X25274Y42431D01*
X25286Y42439D01*
X25298D01*
X25311Y42436D01*
D02*
G37*
G36*
X24909Y42014D02*
X24921Y42006D01*
X24934Y41997D01*
X24945Y41989D01*
X24948Y41978D01*
X24958Y41968D01*
X24968Y41937D01*
X24975Y41918D01*
Y41898D01*
X24979Y41878D01*
X24981Y41864D01*
X24980Y41845D01*
X24979Y41829D01*
X24973Y41816D01*
X24966Y41802D01*
X24958Y41789D01*
X24946Y41782D01*
X24934Y41768D01*
X24921Y41756D01*
X24909Y41750D01*
X24894Y41745D01*
X24878Y41742D01*
X24858Y41738D01*
X24839Y41739D01*
X24820Y41743D01*
X24801Y41745D01*
X24785Y41750D01*
X24768Y41759D01*
X24760Y41771D01*
X24747Y41780D01*
X24739Y41794D01*
X24734Y41807D01*
X24728Y41819D01*
X24723Y41836D01*
X24721Y41853D01*
X24725Y41872D01*
X24729Y41883D01*
X24738Y41895D01*
X24746Y41909D01*
X24754Y41920D01*
X24765Y41927D01*
X24781Y41939D01*
X24789Y41945D01*
X24802Y41950D01*
X24811Y41957D01*
X24821D01*
X24824Y41949D01*
X24823Y41939D01*
X24815Y41933D01*
X24806Y41926D01*
X24794Y41916D01*
X24784Y41905D01*
X24775Y41893D01*
X24766Y41877D01*
X24761Y41865D01*
Y41845D01*
X24764Y41830D01*
X24773Y41814D01*
X24784Y41803D01*
X24801Y41790D01*
X24817Y41786D01*
X24836D01*
X24838Y41789D01*
X24855Y41790D01*
X24867Y41794D01*
X24878Y41804D01*
X24888Y41813D01*
X24896Y41822D01*
X24904Y41836D01*
X24906Y41852D01*
Y41867D01*
Y41886D01*
X24901Y41898D01*
X24895Y41916D01*
X24885Y41926D01*
X24884Y41938D01*
X24879Y41952D01*
X24870Y41965D01*
X24861Y41974D01*
X24860Y41989D01*
X24862Y41998D01*
X24869Y42009D01*
X24879Y42016D01*
X24891Y42018D01*
X24909Y42014D01*
D02*
G37*
G36*
X24159Y41773D02*
X24154Y41769D01*
X24147Y41773D01*
X24149Y41781D01*
X24157D01*
X24159Y41773D01*
D02*
G37*
G36*
X24308Y42025D02*
X24323Y42016D01*
X24338Y42004D01*
X24351Y41986D01*
X24357Y41985D01*
X24367Y41978D01*
X24371Y41971D01*
X24376Y41959D01*
X24381Y41948D01*
X24385Y41932D01*
X24389Y41912D01*
X24390Y41893D01*
X24388Y41877D01*
X24381Y41855D01*
X24370Y41829D01*
X24357Y41798D01*
X24352Y41794D01*
X24343Y41782D01*
X24333Y41773D01*
X24319Y41764D01*
X24300Y41747D01*
X24279Y41734D01*
X24260Y41724D01*
X24237Y41719D01*
X24215D01*
X24200Y41722D01*
X24185Y41728D01*
X24168Y41736D01*
X24152Y41744D01*
X24143Y41750D01*
X24139Y41756D01*
Y41760D01*
X24149D01*
X24163Y41757D01*
X24177Y41751D01*
X24190Y41749D01*
X24206Y41746D01*
X24223D01*
X24236Y41751D01*
X24248Y41757D01*
X24270Y41768D01*
X24281Y41779D01*
X24303Y41802D01*
X24314Y41816D01*
X24320Y41828D01*
X24321Y41849D01*
X24317Y41861D01*
X24306Y41865D01*
X24293Y41866D01*
X24274Y41864D01*
X24251Y41865D01*
X24237Y41868D01*
X24220Y41875D01*
X24204Y41883D01*
X24182Y41887D01*
X24159Y41889D01*
X24138Y41896D01*
X24120Y41903D01*
X24106Y41911D01*
X24096Y41925D01*
Y41939D01*
X24102Y41957D01*
X24109Y41968D01*
X24124Y41981D01*
X24140Y41990D01*
X24199Y42019D01*
X24221Y42026D01*
X24247Y42028D01*
X24291D01*
X24308Y42025D01*
D02*
G37*
G36*
X25400Y43212D02*
X25395Y43206D01*
X25387Y43210D01*
X25386Y43215D01*
X25393Y43221D01*
X25400Y43212D01*
D02*
G37*
G36*
X24245Y43140D02*
X24250Y43130D01*
X24259Y43124D01*
X24274Y43114D01*
X24276Y43095D01*
X24288Y43080D01*
X24306Y43066D01*
X24311Y43048D01*
X24319Y43022D01*
Y42991D01*
Y42985D01*
X24311Y42963D01*
X24307Y42952D01*
X24309Y42933D01*
X24300Y42918D01*
X24291Y42902D01*
X24274Y42892D01*
X24259Y42882D01*
X24235Y42868D01*
X24212Y42861D01*
X24189Y42858D01*
X24161Y42861D01*
X24136Y42869D01*
X24116Y42882D01*
X24117Y42854D01*
X24116Y42842D01*
X24115Y42824D01*
Y42807D01*
X24116Y42778D01*
X24119Y42750D01*
X24122Y42727D01*
X24132Y42704D01*
X24140Y42685D01*
X24152Y42666D01*
X24163Y42649D01*
X24180Y42636D01*
X24197Y42627D01*
X24217Y42622D01*
X24244Y42619D01*
X24268Y42626D01*
X24285Y42628D01*
X24299Y42638D01*
X24311Y42647D01*
X24321Y42659D01*
X24328Y42667D01*
X24335Y42671D01*
X24342Y42670D01*
Y42658D01*
X24338Y42643D01*
X24329Y42632D01*
X24315Y42620D01*
X24299Y42613D01*
X24280Y42604D01*
X24259Y42602D01*
X24233Y42600D01*
X24204Y42602D01*
X24183Y42610D01*
X24162Y42617D01*
X24149Y42628D01*
X24126Y42650D01*
X24115Y42670D01*
X24104Y42697D01*
X24094Y42720D01*
X24088Y42738D01*
X24084Y42756D01*
X24082Y42784D01*
X24079Y42807D01*
X24076Y42831D01*
X24079Y42849D01*
X24075Y42863D01*
X24076Y42886D01*
X24075Y42909D01*
X24076Y42939D01*
X24075Y42964D01*
X24079Y42993D01*
Y43024D01*
X24082Y43047D01*
Y43070D01*
X24083Y43091D01*
X24079Y43105D01*
X24073Y43113D01*
X24067Y43122D01*
X24070Y43131D01*
X24077Y43139D01*
X24089Y43143D01*
X24104Y43140D01*
X24107Y43131D01*
X24117Y43124D01*
X24128D01*
X24136Y43129D01*
X24146Y43136D01*
X24161Y43141D01*
X24177Y43143D01*
X24204Y43148D01*
X24245Y43140D01*
D02*
G37*
G36*
X23976Y43485D02*
X23983Y43471D01*
X23988Y43462D01*
X23995Y43466D01*
X24000Y43454D01*
X24011Y43437D01*
Y43423D01*
X24006Y43402D01*
X24002Y43383D01*
X24003Y43373D01*
X24000Y43364D01*
X23997Y43344D01*
X23988Y43327D01*
X23987Y43309D01*
X23991Y43301D01*
X23987Y43290D01*
X23988Y43263D01*
Y43244D01*
X23983Y43224D01*
X23981Y43200D01*
X23974Y43186D01*
X23977Y43155D01*
X23971Y43118D01*
X23968Y43108D01*
X23970Y43086D01*
X23968Y43068D01*
X23964Y43048D01*
X23961Y43032D01*
Y43011D01*
X23957Y43000D01*
X23947Y42956D01*
X23945Y42948D01*
Y42926D01*
X23941Y42903D01*
X23940Y42882D01*
X23933Y42865D01*
X23938Y42851D01*
X23932Y42834D01*
X23930Y42800D01*
X23927Y42786D01*
X23931Y42771D01*
X23923Y42762D01*
X23916Y42756D01*
X23905Y42757D01*
X23898Y42769D01*
X23894Y42778D01*
X23893Y42795D01*
Y42808D01*
X23895Y42824D01*
X23896Y42840D01*
X23902Y42880D01*
Y42937D01*
X23900Y42954D01*
Y42968D01*
X23899Y42987D01*
X23896Y43004D01*
X23892Y43014D01*
X23888Y43032D01*
X23879Y43059D01*
X23865Y43079D01*
X23856Y43085D01*
X23830Y43091D01*
X23816D01*
X23810Y43083D01*
X23797Y43072D01*
X23793Y43057D01*
X23782Y43039D01*
X23776Y43030D01*
X23767Y43020D01*
X23763Y43008D01*
Y42991D01*
X23758Y42979D01*
X23762Y42969D01*
X23759Y42955D01*
X23746Y42940D01*
X23751Y42924D01*
X23745Y42884D01*
X23743Y42861D01*
X23739Y42836D01*
X23741Y42828D01*
Y42818D01*
X23754Y42809D01*
X23745Y42800D01*
X23736D01*
X23732Y42804D01*
X23723Y42814D01*
X23721Y42830D01*
X23723Y42845D01*
X23724Y42863D01*
X23728Y42886D01*
X23724Y42916D01*
Y42937D01*
X23727Y42956D01*
Y42977D01*
X23728Y43001D01*
X23731Y43028D01*
Y43048D01*
X23735Y43069D01*
X23741Y43097D01*
X23747Y43110D01*
X23763Y43131D01*
X23786Y43145D01*
X23804Y43152D01*
X23825Y43155D01*
X23856Y43159D01*
X23884Y43148D01*
X23898Y43129D01*
X23909Y43117D01*
Y43171D01*
Y43195D01*
Y43218D01*
Y43243D01*
X23910Y43267D01*
X23916Y43285D01*
X23911Y43309D01*
Y43337D01*
X23909Y43356D01*
X23907Y43379D01*
X23902Y43399D01*
X23895Y43412D01*
X23891Y43425D01*
X23893Y43446D01*
X23899Y43459D01*
X23911Y43475D01*
X23926Y43486D01*
X23942Y43488D01*
X23961Y43491D01*
X23976Y43485D01*
D02*
G37*
G36*
X25101Y43075D02*
X25096Y43066D01*
X25090Y43065D01*
X25086Y43070D01*
Y43079D01*
X25094Y43084D01*
X25101Y43075D01*
D02*
G37*
G36*
X24901Y43167D02*
X24929Y43162D01*
X24944Y43154D01*
X24961Y43141D01*
X24976Y43133D01*
X24989Y43122D01*
X25000Y43107D01*
X25011Y43095D01*
X25013Y43084D01*
Y43072D01*
X25003Y43062D01*
X24991Y43057D01*
X24976D01*
X24958Y43060D01*
X24943D01*
X24929Y43062D01*
X24918Y43069D01*
X24906Y43075D01*
X24895D01*
X24890Y43077D01*
X24873Y43075D01*
X24852Y43069D01*
X24833Y43050D01*
X24823Y43037D01*
X24814Y43023D01*
X24819Y43013D01*
X24828Y43010D01*
X24838Y43005D01*
X24858Y42996D01*
X24873Y42986D01*
X24891Y42983D01*
X24906Y42980D01*
X24923Y42977D01*
X24937Y42967D01*
X24950Y42956D01*
X24958Y42941D01*
X24968Y42925D01*
X24970Y42909D01*
Y42894D01*
Y42873D01*
X24963Y42859D01*
X24953Y42847D01*
X24938Y42838D01*
X24920Y42831D01*
X24906Y42830D01*
X24895Y42826D01*
X24885Y42830D01*
X24872Y42834D01*
X24857Y42839D01*
X24839Y42846D01*
X24824Y42854D01*
X24814Y42862D01*
X24800Y42871D01*
X24791Y42882D01*
X24782Y42887D01*
X24776Y42891D01*
X24773Y42886D01*
X24768Y42872D01*
X24762Y42861D01*
X24758Y42848D01*
X24751Y42840D01*
X24743D01*
X24735Y42847D01*
X24734Y42855D01*
X24735Y42869D01*
X24740Y42886D01*
X24745Y42901D01*
X24751Y42916D01*
X24760Y42957D01*
X24763Y42980D01*
X24767Y43003D01*
Y43022D01*
Y43038D01*
X24774Y43056D01*
X24781Y43080D01*
X24786Y43098D01*
X24792Y43116D01*
X24802Y43131D01*
X24811Y43140D01*
X24828Y43151D01*
X24844Y43156D01*
X24858Y43164D01*
X24875Y43169D01*
X24901Y43167D01*
D02*
G37*
G36*
X24576Y43018D02*
X24570Y43007D01*
X24572Y42988D01*
X24564Y42972D01*
X24552Y42961D01*
X24537Y42975D01*
X24534Y42998D01*
X24550Y43016D01*
X24559Y43023D01*
X24570D01*
X24576Y43018D01*
D02*
G37*
G36*
X24750Y42948D02*
Y42941D01*
X24744Y42940D01*
X24739Y42943D01*
X24740Y42952D01*
X24750Y42948D01*
D02*
G37*
G36*
X25311Y43548D02*
X25325Y43545D01*
X25334Y43542D01*
X25344Y43533D01*
X25353Y43521D01*
Y43513D01*
Y43498D01*
Y43484D01*
X25357Y43471D01*
Y43460D01*
X25364Y43450D01*
X25362Y43441D01*
X25354Y43433D01*
X25360Y43423D01*
Y43410D01*
X25357Y43395D01*
X25356Y43379D01*
Y43363D01*
X25354Y43349D01*
X25350Y43338D01*
X25353Y43325D01*
Y43315D01*
X25354Y43302D01*
X25356Y43292D01*
X25354Y43282D01*
X25356Y43267D01*
X25357Y43250D01*
Y43233D01*
X25360Y43220D01*
X25357Y43204D01*
X25356Y43191D01*
X25357Y43177D01*
X25360Y43156D01*
X25362Y43140D01*
Y43117D01*
X25363Y43099D01*
Y43061D01*
X25362Y43050D01*
X25363Y43032D01*
X25367Y43018D01*
X25368Y42999D01*
X25372Y42984D01*
X25370Y42967D01*
X25372Y42948D01*
X25376Y42929D01*
Y42914D01*
X25379Y42901D01*
X25383Y42891D01*
X25379Y42880D01*
X25385Y42869D01*
X25386Y42857D01*
Y42844D01*
X25387Y42833D01*
X25383Y42824D01*
X25370Y42821D01*
X25353Y42824D01*
X25338Y42819D01*
X25323Y42815D01*
X25307Y42814D01*
X25286D01*
X25269Y42812D01*
X25240D01*
X25225Y42822D01*
X25207Y42833D01*
X25187Y42839D01*
X25173Y42848D01*
X25155Y42852D01*
X25140D01*
X25116Y42857D01*
X25096Y42855D01*
X25079D01*
X25063Y42860D01*
X25050Y42865D01*
X25034D01*
X25025Y42871D01*
X25021Y42881D01*
X25014Y42892D01*
X25013Y42906D01*
Y42919D01*
X25015Y42933D01*
X25017Y42944D01*
X25028Y42955D01*
X25034Y42966D01*
X25045Y42974D01*
X25059Y42976D01*
X25070Y42971D01*
X25085Y42963D01*
X25087Y42953D01*
X25101Y42946D01*
X25117Y42939D01*
X25139Y42933D01*
X25157Y42930D01*
X25177Y42933D01*
X25192Y42934D01*
X25202Y42930D01*
X25221Y42924D01*
X25235Y42922D01*
X25246Y42919D01*
X25262D01*
X25276Y42925D01*
X25287D01*
X25307Y42922D01*
X25325Y42920D01*
X25336Y42916D01*
X25345Y42918D01*
X25348Y42924D01*
Y42937D01*
X25345Y42948D01*
Y42955D01*
X25342Y42966D01*
X25339Y42983D01*
X25338Y43002D01*
X25339Y43015D01*
X25333Y43032D01*
X25331Y43047D01*
X25330Y43061D01*
X25326Y43074D01*
Y43090D01*
X25323Y43099D01*
X25321Y43112D01*
Y43129D01*
X25316Y43147D01*
X25315Y43164D01*
X25309Y43178D01*
Y43195D01*
X25305Y43228D01*
X25303Y43245D01*
X25302Y43258D01*
X25296Y43268D01*
X25293Y43278D01*
X25289Y43292D01*
Y43306D01*
X25284Y43336D01*
X25279Y43352D01*
Y43368D01*
X25274Y43383D01*
X25272Y43397D01*
X25269Y43410D01*
X25263Y43423D01*
X25261Y43443D01*
X25254Y43455D01*
X25242Y43466D01*
X25239Y43475D01*
X25235Y43489D01*
X25237Y43500D01*
X25242Y43515D01*
X25250Y43528D01*
X25263Y43537D01*
X25274Y43543D01*
X25286Y43551D01*
X25298D01*
X25311Y43548D01*
D02*
G37*
G36*
X24788Y42863D02*
X24790Y42858D01*
X24782Y42855D01*
X24778Y42858D01*
X24782Y42867D01*
X24788Y42863D01*
D02*
G37*
G36*
X24453Y43116D02*
X24458Y43108D01*
X24460Y43094D01*
X24463Y43085D01*
X24465Y43074D01*
X24464Y43061D01*
X24467Y43048D01*
X24463Y43042D01*
X24460Y43025D01*
X24456Y43007D01*
X24459Y42985D01*
X24462Y42966D01*
X24468Y42952D01*
X24473Y42939D01*
X24481Y42926D01*
X24491Y42909D01*
X24502Y42898D01*
X24515Y42892D01*
X24528Y42887D01*
X24545Y42892D01*
X24559Y42899D01*
X24574Y42909D01*
X24581Y42922D01*
X24589Y42932D01*
X24594Y42953D01*
Y42972D01*
Y42986D01*
X24590Y43002D01*
X24589Y43018D01*
X24582Y43028D01*
X24576Y43037D01*
X24574Y43048D01*
X24578Y43065D01*
X24584Y43075D01*
X24591Y43087D01*
X24601Y43095D01*
X24613Y43102D01*
X24626Y43103D01*
X24636D01*
X24650Y43096D01*
X24660Y43085D01*
X24663Y43075D01*
Y43062D01*
X24662Y43053D01*
X24660Y43039D01*
X24659Y43024D01*
X24658Y43014D01*
X24652Y42996D01*
X24656Y42980D01*
X24652Y42968D01*
X24647Y42949D01*
X24644Y42933D01*
X24637Y42917D01*
X24634Y42901D01*
X24622Y42891D01*
X24614Y42883D01*
X24601Y42875D01*
X24589Y42867D01*
X24573Y42862D01*
X24559Y42855D01*
X24547Y42854D01*
X24532D01*
X24512Y42859D01*
X24503Y42865D01*
X24490Y42871D01*
X24481Y42882D01*
X24474Y42891D01*
X24468Y42899D01*
X24462Y42910D01*
X24460Y42920D01*
X24457Y42930D01*
X24450Y42940D01*
X24446Y42946D01*
X24441D01*
X24438Y42938D01*
X24435Y42928D01*
X24433Y42916D01*
X24420Y42887D01*
X24412Y42880D01*
X24402Y42872D01*
X24394Y42862D01*
X24390Y42857D01*
X24382Y42856D01*
X24375D01*
X24368Y42860D01*
X24363Y42869D01*
X24366Y42877D01*
X24389Y42886D01*
X24398Y42895D01*
X24405Y42905D01*
X24411Y42917D01*
X24416Y42932D01*
X24418Y42946D01*
X24423Y42964D01*
X24428Y42977D01*
Y42998D01*
X24434Y43011D01*
X24436Y43025D01*
X24438Y43037D01*
X24434Y43044D01*
Y43050D01*
X24429Y43066D01*
Y43081D01*
X24428Y43092D01*
X24433Y43102D01*
X24434Y43108D01*
X24438Y43117D01*
X24447Y43120D01*
X24453Y43116D01*
D02*
G37*
G36*
X24281Y42832D02*
X24295Y42826D01*
X24288Y42816D01*
X24273D01*
X24264Y42822D01*
Y42832D01*
X24273Y42839D01*
X24281Y42832D01*
D02*
G37*
G36*
X24958Y44290D02*
X24961Y44280D01*
X24953Y44279D01*
X24944Y44284D01*
X24952Y44293D01*
X24958Y44290D01*
D02*
G37*
G36*
X24920Y44274D02*
X24939Y44269D01*
X24957Y44267D01*
X24969Y44265D01*
X24985Y44257D01*
X24991Y44249D01*
X24997Y44238D01*
X24998Y44228D01*
X24997Y44218D01*
X24991Y44204D01*
X24980Y44191D01*
X24970Y44180D01*
X24961Y44172D01*
X24952Y44167D01*
X24925D01*
X24914Y44175D01*
X24906Y44185D01*
X24901Y44198D01*
Y44213D01*
X24906Y44220D01*
X24910Y44229D01*
Y44239D01*
X24904Y44249D01*
X24895Y44257D01*
X24893Y44266D01*
X24899Y44274D01*
X24908Y44275D01*
X24920Y44274D01*
D02*
G37*
G36*
X25400Y44133D02*
X25395Y44126D01*
X25387Y44131D01*
X25386Y44136D01*
X25393Y44142D01*
X25400Y44133D01*
D02*
G37*
G36*
X25101Y43996D02*
X25096Y43986D01*
X25090Y43985D01*
X25086Y43991D01*
Y43999D01*
X25094Y44005D01*
X25101Y43996D01*
D02*
G37*
G36*
X24834Y44108D02*
X24844Y44096D01*
Y44081D01*
Y44073D01*
X24836Y44062D01*
X24826Y44050D01*
X24822Y44034D01*
X24815Y44022D01*
X24806Y44010D01*
X24800Y43999D01*
X24797Y43967D01*
X24788Y43945D01*
X24767Y43881D01*
X24762Y43864D01*
X24754Y43849D01*
X24749Y43832D01*
X24742Y43816D01*
X24737Y43803D01*
X24730Y43787D01*
Y43773D01*
X24726Y43757D01*
X24720Y43746D01*
X24715Y43739D01*
X24703Y43736D01*
X24693Y43737D01*
X24684Y43745D01*
X24678Y43754D01*
X24676Y43763D01*
Y43774D01*
X24680Y43782D01*
X24676Y43794D01*
X24675Y43808D01*
X24670Y43827D01*
X24668Y43846D01*
X24660Y43865D01*
X24655Y43884D01*
X24649Y43898D01*
X24645Y43911D01*
X24637Y43928D01*
X24631Y43945D01*
X24626Y43960D01*
X24621Y43969D01*
Y43975D01*
X24612Y43987D01*
X24604Y44001D01*
X24598Y44012D01*
X24589Y44024D01*
X24581Y44030D01*
X24575Y44043D01*
Y44050D01*
X24582Y44057D01*
X24589D01*
X24592Y44052D01*
X24599Y44043D01*
X24609Y44030D01*
X24616Y44021D01*
X24627Y44012D01*
X24632Y43999D01*
X24640Y43989D01*
X24646Y43975D01*
X24655Y43962D01*
Y43950D01*
X24663Y43936D01*
X24673Y43912D01*
X24676Y43907D01*
X24687Y43880D01*
X24693Y43867D01*
X24698Y43863D01*
X24702Y43869D01*
Y43878D01*
X24696Y43889D01*
X24697Y43903D01*
X24699Y43920D01*
X24702Y43934D01*
X24704Y43950D01*
X24708Y43965D01*
Y43978D01*
X24710Y43993D01*
X24708Y44005D01*
X24702Y44013D01*
X24699Y44022D01*
X24704Y44034D01*
X24706Y44050D01*
X24711Y44060D01*
X24731Y44069D01*
X24743Y44081D01*
X24754Y44095D01*
X24768Y44103D01*
X24784Y44110D01*
X24801Y44113D01*
X24821Y44114D01*
X24834Y44108D01*
D02*
G37*
G36*
X25311Y44468D02*
X25325Y44466D01*
X25334Y44463D01*
X25344Y44454D01*
X25353Y44442D01*
Y44433D01*
Y44419D01*
Y44405D01*
X25357Y44392D01*
Y44381D01*
X25364Y44371D01*
X25362Y44361D01*
X25354Y44354D01*
X25360Y44344D01*
Y44331D01*
X25357Y44315D01*
X25356Y44300D01*
Y44284D01*
X25354Y44269D01*
X25350Y44259D01*
X25353Y44245D01*
Y44236D01*
X25354Y44222D01*
X25356Y44213D01*
X25354Y44203D01*
X25356Y44187D01*
X25357Y44171D01*
Y44154D01*
X25360Y44140D01*
X25357Y44125D01*
X25356Y44112D01*
X25357Y44098D01*
X25360Y44077D01*
X25362Y44061D01*
Y44038D01*
X25363Y44020D01*
Y43982D01*
X25362Y43971D01*
X25363Y43952D01*
X25367Y43938D01*
X25368Y43920D01*
X25372Y43904D01*
X25370Y43888D01*
X25372Y43868D01*
X25376Y43850D01*
Y43834D01*
X25379Y43821D01*
X25383Y43811D01*
X25379Y43801D01*
X25385Y43790D01*
X25386Y43778D01*
Y43764D01*
X25387Y43754D01*
X25383Y43745D01*
X25370Y43742D01*
X25353Y43745D01*
X25338Y43739D01*
X25323Y43736D01*
X25307Y43735D01*
X25286D01*
X25269Y43733D01*
X25240D01*
X25225Y43743D01*
X25207Y43754D01*
X25187Y43760D01*
X25173Y43769D01*
X25155Y43773D01*
X25140D01*
X25116Y43778D01*
X25096Y43775D01*
X25079D01*
X25063Y43781D01*
X25050Y43785D01*
X25034D01*
X25025Y43792D01*
X25021Y43802D01*
X25014Y43813D01*
X25013Y43827D01*
Y43840D01*
X25015Y43854D01*
X25017Y43865D01*
X25028Y43876D01*
X25034Y43887D01*
X25045Y43895D01*
X25059Y43897D01*
X25070Y43891D01*
X25085Y43884D01*
X25087Y43874D01*
X25101Y43867D01*
X25117Y43860D01*
X25139Y43854D01*
X25157Y43851D01*
X25177Y43854D01*
X25192Y43855D01*
X25202Y43851D01*
X25221Y43844D01*
X25235Y43843D01*
X25246Y43840D01*
X25262D01*
X25276Y43845D01*
X25287D01*
X25307Y43843D01*
X25325Y43841D01*
X25336Y43837D01*
X25345Y43839D01*
X25348Y43844D01*
Y43857D01*
X25345Y43868D01*
Y43876D01*
X25342Y43887D01*
X25339Y43903D01*
X25338Y43923D01*
X25339Y43936D01*
X25333Y43952D01*
X25331Y43968D01*
X25330Y43982D01*
X25326Y43995D01*
Y44010D01*
X25323Y44020D01*
X25321Y44032D01*
Y44050D01*
X25316Y44067D01*
X25315Y44085D01*
X25309Y44099D01*
Y44115D01*
X25305Y44149D01*
X25303Y44166D01*
X25302Y44179D01*
X25296Y44189D01*
X25293Y44198D01*
X25289Y44213D01*
Y44227D01*
X25284Y44256D01*
X25279Y44273D01*
Y44289D01*
X25274Y44303D01*
X25272Y44318D01*
X25269Y44331D01*
X25263Y44344D01*
X25261Y44363D01*
X25254Y44375D01*
X25242Y44386D01*
X25239Y44396D01*
X25235Y44409D01*
X25237Y44420D01*
X25242Y44436D01*
X25250Y44449D01*
X25263Y44457D01*
X25274Y44464D01*
X25286Y44472D01*
X25298D01*
X25311Y44468D01*
D02*
G37*
G36*
X24314Y43806D02*
X24308Y43802D01*
X24302Y43806D01*
X24303Y43814D01*
X24311D01*
X24314Y43806D01*
D02*
G37*
G36*
X24462Y44057D02*
X24478Y44049D01*
X24492Y44037D01*
X24505Y44019D01*
X24511Y44018D01*
X24521Y44010D01*
X24526Y44004D01*
X24530Y43992D01*
X24535Y43981D01*
X24539Y43965D01*
X24543Y43945D01*
X24544Y43926D01*
X24542Y43910D01*
X24535Y43888D01*
X24525Y43862D01*
X24511Y43831D01*
X24506Y43827D01*
X24497Y43815D01*
X24487Y43806D01*
X24473Y43797D01*
X24455Y43780D01*
X24433Y43767D01*
X24414Y43757D01*
X24391Y43751D01*
X24369D01*
X24354Y43755D01*
X24339Y43761D01*
X24322Y43769D01*
X24306Y43777D01*
X24297Y43783D01*
X24293Y43789D01*
Y43793D01*
X24303D01*
X24317Y43790D01*
X24331Y43784D01*
X24344Y43782D01*
X24361Y43779D01*
X24377D01*
X24390Y43784D01*
X24402Y43790D01*
X24424Y43801D01*
X24435Y43811D01*
X24457Y43834D01*
X24468Y43849D01*
X24474Y43861D01*
X24475Y43881D01*
X24471Y43893D01*
X24460Y43898D01*
X24447Y43899D01*
X24428Y43897D01*
X24405Y43898D01*
X24391Y43901D01*
X24374Y43908D01*
X24358Y43915D01*
X24337Y43920D01*
X24314Y43922D01*
X24292Y43928D01*
X24274Y43936D01*
X24260Y43944D01*
X24250Y43958D01*
Y43972D01*
X24256Y43990D01*
X24263Y44001D01*
X24279Y44014D01*
X24294Y44022D01*
X24353Y44052D01*
X24375Y44058D01*
X24401Y44061D01*
X24445D01*
X24462Y44057D01*
D02*
G37*
G36*
X24962Y44092D02*
X24970Y44089D01*
X24976Y44079D01*
X24980Y44067D01*
X24976Y44056D01*
X24975Y44044D01*
X24973Y44026D01*
X24974Y44008D01*
Y43969D01*
X24973Y43958D01*
X24966Y43938D01*
X24961Y43932D01*
X24952Y43926D01*
X24946Y43916D01*
Y43904D01*
Y43889D01*
Y43877D01*
Y43857D01*
X24944Y43849D01*
X24942Y43818D01*
X24939Y43806D01*
Y43792D01*
X24937Y43781D01*
Y43768D01*
X24929Y43751D01*
Y43743D01*
X24923Y43733D01*
X24921Y43724D01*
X24919Y43713D01*
X24915Y43703D01*
X24910Y43700D01*
X24905Y43703D01*
X24899Y43712D01*
X24904Y43721D01*
Y43731D01*
X24907Y43739D01*
X24908Y43754D01*
X24913Y43768D01*
X24914Y43777D01*
Y43799D01*
X24919Y43813D01*
X24915Y43829D01*
X24919Y43841D01*
X24921Y43855D01*
Y43873D01*
X24920Y43888D01*
X24921Y43910D01*
Y43927D01*
X24920Y43945D01*
X24919Y43961D01*
X24915Y43973D01*
X24918Y43987D01*
X24913Y44004D01*
X24910Y44020D01*
X24907Y44032D01*
X24901Y44038D01*
X24890Y44044D01*
X24886Y44049D01*
Y44057D01*
X24893Y44064D01*
X24901Y44068D01*
X24908Y44077D01*
X24920D01*
X24929Y44084D01*
X24938Y44092D01*
X24951Y44096D01*
X24962Y44092D01*
D02*
G37*
%LPC*%
G36*
X29298Y44748D02*
X29243D01*
Y44742D01*
X29210D01*
Y44737D01*
X29183D01*
Y44731D01*
X29166D01*
Y44726D01*
X29155D01*
Y44720D01*
X29145D01*
Y44715D01*
X29139D01*
Y44709D01*
X29128D01*
Y44704D01*
X29117D01*
Y44698D01*
X29112D01*
Y44693D01*
X29101D01*
Y44688D01*
X29090D01*
Y44682D01*
X29084D01*
Y44677D01*
X29079D01*
Y44671D01*
X29068D01*
Y44666D01*
X29062D01*
Y44660D01*
X29057D01*
Y44655D01*
X29052D01*
Y44649D01*
X29046D01*
Y44644D01*
X29041D01*
Y44638D01*
X29035D01*
Y44633D01*
X29030D01*
Y44627D01*
X29024D01*
Y44622D01*
X29019D01*
Y44616D01*
X29013D01*
Y44611D01*
X29008D01*
Y44605D01*
X29002D01*
Y44600D01*
X28997D01*
Y44589D01*
X28991D01*
Y44584D01*
X28986D01*
Y44578D01*
X28980D01*
Y44567D01*
X28975D01*
Y44562D01*
X28970D01*
Y44556D01*
X28964D01*
Y44545D01*
X28959D01*
Y44540D01*
X28953D01*
Y44534D01*
X28948D01*
Y44523D01*
X28942D01*
Y44518D01*
X28937D01*
Y44502D01*
X28931D01*
Y44496D01*
X28926D01*
Y44485D01*
X28920D01*
Y44480D01*
X28915D01*
Y44469D01*
X28909D01*
Y44458D01*
X28904D01*
Y44452D01*
X28898D01*
Y44436D01*
X28893D01*
Y44425D01*
X28888D01*
Y44414D01*
X28882D01*
Y44403D01*
X28877D01*
Y44392D01*
X28871D01*
Y44381D01*
X28866D01*
Y44370D01*
X28860D01*
Y44359D01*
X28855D01*
Y44343D01*
X28849D01*
Y44327D01*
X28844D01*
Y44316D01*
X28838D01*
Y44305D01*
X28833D01*
Y44288D01*
X28827D01*
Y44277D01*
X28822D01*
Y44261D01*
X28816D01*
Y44245D01*
X28811D01*
Y44223D01*
X28789D01*
Y44245D01*
X28784D01*
Y44261D01*
X28778D01*
Y44277D01*
X28773D01*
Y44288D01*
X28767D01*
Y44305D01*
X28762D01*
Y44316D01*
X28756D01*
Y44327D01*
X28751D01*
Y44343D01*
X28745D01*
Y44359D01*
X28740D01*
Y44370D01*
X28734D01*
Y44381D01*
X28729D01*
Y44392D01*
X28723D01*
Y44403D01*
X28718D01*
Y44414D01*
X28712D01*
Y44425D01*
X28707D01*
Y44436D01*
X28702D01*
Y44452D01*
X28696D01*
Y44458D01*
X28691D01*
Y44469D01*
X28685D01*
Y44480D01*
X28680D01*
Y44485D01*
X28674D01*
Y44496D01*
X28669D01*
Y44502D01*
X28663D01*
Y44518D01*
X28658D01*
Y44523D01*
X28652D01*
Y44534D01*
X28647D01*
Y44540D01*
X28641D01*
Y44545D01*
X28636D01*
Y44551D01*
X28630D01*
Y44562D01*
X28625D01*
Y44567D01*
X28620D01*
Y44578D01*
X28614D01*
Y44584D01*
X28609D01*
Y44589D01*
X28603D01*
Y44595D01*
X28598D01*
Y44600D01*
X28592D01*
Y44611D01*
X28587D01*
Y44616D01*
X28581D01*
Y44622D01*
X28576D01*
Y44627D01*
X28570D01*
Y44633D01*
X28565D01*
Y44638D01*
X28559D01*
Y44644D01*
X28554D01*
Y44649D01*
X28548D01*
Y44655D01*
X28537D01*
Y44660D01*
X28532D01*
Y44666D01*
X28527D01*
Y44671D01*
X28521D01*
Y44677D01*
X28516D01*
Y44682D01*
X28505D01*
Y44688D01*
X28499D01*
Y44693D01*
X28488D01*
Y44698D01*
X28477D01*
Y44704D01*
X28466D01*
Y44709D01*
X28455D01*
Y44715D01*
X28450D01*
Y44720D01*
X28439D01*
Y44726D01*
X28423D01*
Y44731D01*
X28406D01*
Y44737D01*
X28363D01*
Y44742D01*
X28297D01*
Y44737D01*
X28259D01*
Y44731D01*
X28248D01*
Y44726D01*
X28231D01*
Y44720D01*
X28220D01*
Y44715D01*
X28215D01*
Y44709D01*
X28204D01*
Y44704D01*
X28193D01*
Y44698D01*
X28187D01*
Y44693D01*
X28177D01*
Y44682D01*
X28171D01*
Y44677D01*
X28166D01*
Y44671D01*
X28160D01*
Y44666D01*
X28155D01*
Y44660D01*
X28149D01*
Y44655D01*
X28144D01*
Y44649D01*
X28138D01*
Y44638D01*
X28133D01*
Y44627D01*
X28127D01*
Y44616D01*
X28122D01*
Y44611D01*
X28116D01*
Y44600D01*
X28111D01*
Y44595D01*
X28105D01*
Y44584D01*
X28100D01*
Y44567D01*
X28095D01*
Y44556D01*
X28089D01*
Y44534D01*
X28084D01*
Y44518D01*
X28078D01*
Y44502D01*
X28073D01*
Y44485D01*
X28067D01*
Y44463D01*
X28062D01*
Y44430D01*
X28056D01*
Y44398D01*
X28051D01*
Y44348D01*
X28045D01*
Y44245D01*
X28040D01*
Y43977D01*
X28045D01*
Y43862D01*
X28029D01*
Y43873D01*
X28023D01*
Y43878D01*
X28018D01*
Y43884D01*
X28012D01*
Y43889D01*
X28007D01*
Y43895D01*
X28002D01*
Y43900D01*
X27991D01*
Y43905D01*
X27985D01*
Y43916D01*
X27980D01*
Y43922D01*
X27974D01*
Y43927D01*
X27941D01*
Y43922D01*
X27925D01*
Y43927D01*
X27898D01*
Y43933D01*
X27887D01*
Y43938D01*
X27876D01*
Y43944D01*
X27870D01*
Y43949D01*
X27865D01*
Y43955D01*
X27859D01*
Y43960D01*
X27854D01*
Y43966D01*
X27848D01*
Y43971D01*
X27843D01*
Y43977D01*
X27838D01*
Y43982D01*
X27827D01*
Y43987D01*
X27821D01*
Y43949D01*
X27827D01*
Y43922D01*
X27832D01*
Y43895D01*
X27838D01*
Y43856D01*
X27843D01*
Y43834D01*
X27848D01*
Y43818D01*
X27854D01*
Y43802D01*
X27859D01*
Y43785D01*
X27865D01*
Y43769D01*
X27870D01*
Y43758D01*
X27876D01*
Y43741D01*
X27881D01*
Y43725D01*
X27887D01*
Y43714D01*
X27892D01*
Y43703D01*
X27898D01*
Y43692D01*
X27903D01*
Y43681D01*
X27909D01*
Y43676D01*
X27914D01*
Y43665D01*
X27920D01*
Y43654D01*
X27925D01*
Y43643D01*
X27930D01*
Y43632D01*
X27936D01*
Y43627D01*
X27941D01*
Y43616D01*
X27947D01*
Y43610D01*
X27952D01*
Y43605D01*
X27958D01*
Y43594D01*
X27963D01*
Y43583D01*
X27969D01*
Y43577D01*
X27974D01*
Y43572D01*
X27980D01*
Y43566D01*
X27985D01*
Y43561D01*
X27991D01*
Y43555D01*
X27996D01*
Y43550D01*
X28002D01*
Y43545D01*
X28007D01*
Y43534D01*
X28012D01*
Y43528D01*
X28018D01*
Y43523D01*
X28029D01*
Y43517D01*
X28034D01*
Y43512D01*
X28045D01*
Y43506D01*
X28051D01*
Y43501D01*
X28067D01*
Y43495D01*
X28089D01*
Y43490D01*
X28100D01*
Y43484D01*
X28111D01*
Y43479D01*
X28122D01*
Y43468D01*
X28127D01*
Y43463D01*
X28133D01*
Y43452D01*
X28138D01*
Y43441D01*
X28144D01*
Y43424D01*
X28149D01*
Y43386D01*
X28155D01*
Y43348D01*
X28160D01*
Y43320D01*
X28166D01*
Y43298D01*
X28171D01*
Y43282D01*
X28177D01*
Y43255D01*
X28182D01*
Y43244D01*
X28187D01*
Y43227D01*
X28193D01*
Y43216D01*
X28198D01*
Y43200D01*
X28204D01*
Y43189D01*
X28209D01*
Y43178D01*
X28215D01*
Y43167D01*
X28220D01*
Y43151D01*
X28226D01*
Y43140D01*
X28231D01*
Y43129D01*
X28237D01*
Y43123D01*
X28242D01*
Y43113D01*
X28248D01*
Y43107D01*
X28253D01*
Y43096D01*
X28259D01*
Y43085D01*
X28264D01*
Y43074D01*
X28270D01*
Y43069D01*
X28275D01*
Y43058D01*
X28280D01*
Y43052D01*
X28286D01*
Y43047D01*
X28291D01*
Y43041D01*
X28297D01*
Y43030D01*
X28302D01*
Y43020D01*
X28308D01*
Y43014D01*
X28313D01*
Y43009D01*
X28319D01*
Y43003D01*
X28324D01*
Y42998D01*
X28330D01*
Y42992D01*
X28335D01*
Y42987D01*
X28341D01*
Y42976D01*
X28346D01*
Y42970D01*
X28352D01*
Y42965D01*
X28357D01*
Y42959D01*
X28363D01*
Y42954D01*
X28368D01*
Y42948D01*
X28373D01*
Y42943D01*
X28379D01*
Y42937D01*
X28384D01*
Y42932D01*
X28390D01*
Y42927D01*
X28395D01*
Y42921D01*
X28401D01*
Y42916D01*
X28406D01*
Y42910D01*
X28412D01*
Y42905D01*
X28417D01*
Y42899D01*
X28423D01*
Y42894D01*
X28428D01*
Y42888D01*
X28434D01*
Y42883D01*
X28445D01*
Y42877D01*
X28450D01*
Y42872D01*
X28455D01*
Y42866D01*
X28461D01*
Y42861D01*
X28466D01*
Y42855D01*
X28472D01*
Y42850D01*
X28483D01*
Y42845D01*
X28488D01*
Y42839D01*
X28499D01*
Y42834D01*
X28505D01*
Y42828D01*
X28510D01*
Y42823D01*
X28516D01*
Y42817D01*
X28527D01*
Y42812D01*
X28532D01*
Y42806D01*
X28543D01*
Y42801D01*
X28554D01*
Y42795D01*
X28559D01*
Y42790D01*
X28570D01*
Y42784D01*
X28576D01*
Y42779D01*
X28587D01*
Y42773D01*
X28598D01*
Y42768D01*
X28603D01*
Y42762D01*
X28620D01*
Y42757D01*
X28630D01*
Y42752D01*
X28636D01*
Y42746D01*
X28647D01*
Y42741D01*
X28663D01*
Y42735D01*
X28674D01*
Y42730D01*
X28685D01*
Y42724D01*
X28707D01*
Y42719D01*
X28723D01*
Y42713D01*
X28740D01*
Y42708D01*
X28762D01*
Y42702D01*
X28838D01*
Y42708D01*
X28860D01*
Y42713D01*
X28877D01*
Y42719D01*
X28893D01*
Y42724D01*
X28915D01*
Y42730D01*
X28926D01*
Y42735D01*
X28937D01*
Y42741D01*
X28953D01*
Y42746D01*
X28964D01*
Y42752D01*
X28970D01*
Y42757D01*
X28980D01*
Y42762D01*
X28997D01*
Y42768D01*
X29002D01*
Y42773D01*
X29013D01*
Y42779D01*
X29024D01*
Y42784D01*
X29030D01*
Y42790D01*
X29041D01*
Y42795D01*
X29046D01*
Y42801D01*
X29057D01*
Y42806D01*
X29068D01*
Y42812D01*
X29073D01*
Y42817D01*
X29084D01*
Y42823D01*
X29090D01*
Y42828D01*
X29095D01*
Y42834D01*
X29101D01*
Y42839D01*
X29112D01*
Y42845D01*
X29117D01*
Y42850D01*
X29128D01*
Y42855D01*
X29134D01*
Y42861D01*
X29139D01*
Y42866D01*
X29145D01*
Y42872D01*
X29150D01*
Y42877D01*
X29155D01*
Y42883D01*
X29166D01*
Y42888D01*
X29172D01*
Y42894D01*
X29177D01*
Y42899D01*
X29183D01*
Y42905D01*
X29188D01*
Y42910D01*
X29194D01*
Y42916D01*
X29199D01*
Y42921D01*
X29205D01*
Y42927D01*
X29210D01*
Y42932D01*
X29216D01*
Y42937D01*
X29221D01*
Y42943D01*
X29227D01*
Y42948D01*
X29232D01*
Y42954D01*
X29237D01*
Y42959D01*
X29243D01*
Y42965D01*
X29248D01*
Y42970D01*
X29254D01*
Y42976D01*
X29259D01*
Y42987D01*
X29265D01*
Y42992D01*
X29270D01*
Y42998D01*
X29276D01*
Y43003D01*
X29281D01*
Y43009D01*
X29287D01*
Y43014D01*
X29292D01*
Y43020D01*
X29298D01*
Y43030D01*
X29303D01*
Y43041D01*
X29309D01*
Y43047D01*
X29314D01*
Y43052D01*
X29320D01*
Y43058D01*
X29325D01*
Y43069D01*
X29330D01*
Y43074D01*
X29336D01*
Y43085D01*
X29341D01*
Y43096D01*
X29347D01*
Y43107D01*
X29352D01*
Y43113D01*
X29358D01*
Y43123D01*
X29363D01*
Y43129D01*
X29369D01*
Y43140D01*
X29374D01*
Y43151D01*
X29380D01*
Y43167D01*
X29385D01*
Y43178D01*
X29391D01*
Y43189D01*
X29396D01*
Y43200D01*
X29402D01*
Y43216D01*
X29407D01*
Y43227D01*
X29413D01*
Y43244D01*
X29418D01*
Y43255D01*
X29423D01*
Y43282D01*
X29429D01*
Y43298D01*
X29434D01*
Y43320D01*
X29440D01*
Y43348D01*
X29445D01*
Y43386D01*
X29451D01*
Y43424D01*
X29456D01*
Y43441D01*
X29462D01*
Y43452D01*
X29467D01*
Y43468D01*
X29473D01*
Y43473D01*
X29484D01*
Y43479D01*
X29489D01*
Y43484D01*
X29500D01*
Y43490D01*
X29511D01*
Y43495D01*
X29533D01*
Y43501D01*
X29549D01*
Y43506D01*
X29555D01*
Y43512D01*
X29566D01*
Y43517D01*
X29571D01*
Y43523D01*
X29582D01*
Y43528D01*
X29588D01*
Y43534D01*
X29593D01*
Y43539D01*
X29598D01*
Y43545D01*
X29604D01*
Y43550D01*
X29609D01*
Y43555D01*
X29615D01*
Y43561D01*
X29620D01*
Y43566D01*
X29626D01*
Y43572D01*
X29631D01*
Y43583D01*
X29637D01*
Y43588D01*
X29642D01*
Y43599D01*
X29648D01*
Y43605D01*
X29653D01*
Y43610D01*
X29659D01*
Y43621D01*
X29664D01*
Y43627D01*
X29670D01*
Y43637D01*
X29675D01*
Y43643D01*
X29680D01*
Y43659D01*
X29686D01*
Y43665D01*
X29691D01*
Y43676D01*
X29697D01*
Y43681D01*
X29702D01*
Y43692D01*
X29708D01*
Y43703D01*
X29713D01*
Y43714D01*
X29719D01*
Y43730D01*
X29724D01*
Y43747D01*
X29730D01*
Y43758D01*
X29735D01*
Y43769D01*
X29741D01*
Y43785D01*
X29746D01*
Y43802D01*
X29752D01*
Y43818D01*
X29757D01*
Y43840D01*
X29762D01*
Y43878D01*
X29768D01*
Y43900D01*
X29773D01*
Y43933D01*
X29779D01*
Y43971D01*
X29784D01*
Y43993D01*
X29779D01*
Y43987D01*
X29773D01*
Y43982D01*
X29762D01*
Y43977D01*
X29757D01*
Y43971D01*
X29752D01*
Y43966D01*
X29746D01*
Y43960D01*
X29741D01*
Y43955D01*
X29735D01*
Y43949D01*
X29730D01*
Y43944D01*
X29724D01*
Y43938D01*
X29719D01*
Y43933D01*
X29702D01*
Y43927D01*
X29670D01*
Y43922D01*
X29653D01*
Y43927D01*
X29637D01*
Y43922D01*
X29631D01*
Y43916D01*
X29626D01*
Y43911D01*
X29620D01*
Y43905D01*
X29615D01*
Y43900D01*
X29609D01*
Y43895D01*
X29604D01*
Y43889D01*
X29598D01*
Y43884D01*
X29593D01*
Y43878D01*
X29582D01*
Y43873D01*
X29577D01*
Y43867D01*
X29571D01*
Y43862D01*
X29560D01*
Y43867D01*
X29555D01*
Y43977D01*
Y43982D01*
Y44173D01*
X29549D01*
Y44288D01*
X29544D01*
Y44338D01*
X29538D01*
Y44381D01*
X29533D01*
Y44409D01*
X29527D01*
Y44441D01*
X29522D01*
Y44469D01*
X29516D01*
Y44485D01*
X29511D01*
Y44518D01*
X29505D01*
Y44540D01*
X29500D01*
Y44556D01*
X29495D01*
Y44573D01*
X29489D01*
Y44584D01*
X29484D01*
Y44595D01*
X29478D01*
Y44605D01*
X29473D01*
Y44616D01*
X29467D01*
Y44633D01*
X29462D01*
Y44644D01*
X29456D01*
Y44649D01*
X29451D01*
Y44660D01*
X29445D01*
Y44666D01*
X29440D01*
Y44671D01*
X29434D01*
Y44677D01*
X29429D01*
Y44688D01*
X29423D01*
Y44693D01*
X29418D01*
Y44698D01*
X29413D01*
Y44704D01*
X29402D01*
Y44709D01*
X29391D01*
Y44715D01*
X29385D01*
Y44720D01*
X29374D01*
Y44726D01*
X29369D01*
Y44731D01*
X29352D01*
Y44737D01*
X29325D01*
Y44742D01*
X29298D01*
Y44748D01*
D02*
G37*
%LPD*%
G36*
X29451Y43862D02*
X29445D01*
Y43834D01*
X29440D01*
Y43818D01*
X29434D01*
Y43802D01*
X29429D01*
Y43791D01*
X29423D01*
Y43780D01*
X29418D01*
Y43769D01*
X29413D01*
Y43758D01*
X29407D01*
Y43747D01*
X29402D01*
Y43736D01*
X29396D01*
Y43730D01*
X29391D01*
Y43720D01*
X29385D01*
Y43714D01*
X29380D01*
Y43703D01*
X29374D01*
Y43698D01*
X29369D01*
Y43687D01*
X29363D01*
Y43681D01*
X29358D01*
Y43676D01*
X29352D01*
Y43670D01*
X29347D01*
Y43665D01*
X29341D01*
Y43659D01*
X29336D01*
Y43654D01*
X29330D01*
Y43648D01*
X29325D01*
Y43643D01*
X29320D01*
Y43637D01*
X29314D01*
Y43632D01*
X29309D01*
Y43627D01*
X29303D01*
Y43621D01*
X29292D01*
Y43616D01*
X29287D01*
Y43610D01*
X29281D01*
Y43605D01*
X29270D01*
Y43599D01*
X29259D01*
Y43594D01*
X29243D01*
Y43588D01*
X29232D01*
Y43583D01*
X29210D01*
Y43577D01*
X29123D01*
Y43583D01*
X29095D01*
Y43588D01*
X29073D01*
Y43594D01*
X29052D01*
Y43599D01*
X29041D01*
Y43605D01*
X29024D01*
Y43610D01*
X29019D01*
Y43616D01*
X29008D01*
Y43621D01*
X29002D01*
Y43627D01*
X28991D01*
Y43632D01*
X28986D01*
Y43637D01*
X28980D01*
Y43643D01*
X28970D01*
Y43648D01*
X28964D01*
Y43654D01*
X28959D01*
Y43659D01*
X28953D01*
Y43670D01*
X28948D01*
Y43676D01*
X28942D01*
Y43681D01*
X28937D01*
Y43692D01*
X28931D01*
Y43698D01*
X28926D01*
Y43709D01*
X28920D01*
Y43720D01*
X28915D01*
Y43747D01*
X28909D01*
Y43791D01*
X28931D01*
Y43796D01*
X28959D01*
Y43802D01*
X28980D01*
Y43807D01*
X29002D01*
Y43812D01*
X29024D01*
Y43818D01*
X29046D01*
Y43823D01*
X29073D01*
Y43829D01*
X29112D01*
Y43834D01*
X29134D01*
Y43840D01*
X29155D01*
Y43845D01*
X29177D01*
Y43851D01*
X29199D01*
Y43856D01*
X29227D01*
Y43862D01*
X29248D01*
Y43867D01*
X29287D01*
Y43873D01*
X29309D01*
Y43878D01*
X29336D01*
Y43884D01*
X29358D01*
Y43889D01*
X29380D01*
Y43895D01*
X29402D01*
Y43900D01*
X29423D01*
Y43905D01*
X29451D01*
Y43862D01*
D02*
G37*
G36*
X28177Y43900D02*
X28198D01*
Y43895D01*
X28220D01*
Y43889D01*
X28242D01*
Y43884D01*
X28264D01*
Y43878D01*
X28286D01*
Y43873D01*
X28313D01*
Y43867D01*
X28352D01*
Y43862D01*
X28373D01*
Y43856D01*
X28395D01*
Y43851D01*
X28417D01*
Y43845D01*
X28439D01*
Y43840D01*
X28466D01*
Y43834D01*
X28483D01*
Y43829D01*
X28521D01*
Y43823D01*
X28548D01*
Y43818D01*
X28570D01*
Y43812D01*
X28592D01*
Y43807D01*
X28614D01*
Y43802D01*
X28636D01*
Y43796D01*
X28663D01*
Y43791D01*
X28685D01*
Y43785D01*
X28691D01*
Y43741D01*
X28685D01*
Y43709D01*
X28680D01*
Y43698D01*
X28674D01*
Y43687D01*
X28669D01*
Y43681D01*
X28663D01*
Y43670D01*
X28658D01*
Y43659D01*
X28652D01*
Y43654D01*
X28647D01*
Y43648D01*
X28641D01*
Y43643D01*
X28636D01*
Y43637D01*
X28630D01*
Y43632D01*
X28625D01*
Y43627D01*
X28620D01*
Y43621D01*
X28609D01*
Y43616D01*
X28603D01*
Y43610D01*
X28598D01*
Y43605D01*
X28587D01*
Y43599D01*
X28576D01*
Y43594D01*
X28559D01*
Y43588D01*
X28543D01*
Y43583D01*
X28521D01*
Y43577D01*
X28445D01*
Y43583D01*
X28428D01*
Y43588D01*
X28412D01*
Y43594D01*
X28395D01*
Y43599D01*
X28384D01*
Y43605D01*
X28373D01*
Y43610D01*
X28368D01*
Y43616D01*
X28363D01*
Y43621D01*
X28352D01*
Y43627D01*
X28346D01*
Y43632D01*
X28335D01*
Y43637D01*
X28330D01*
Y43643D01*
X28319D01*
Y43648D01*
X28313D01*
Y43654D01*
X28308D01*
Y43659D01*
X28302D01*
Y43665D01*
X28297D01*
Y43670D01*
X28291D01*
Y43676D01*
X28280D01*
Y43681D01*
X28275D01*
Y43687D01*
X28270D01*
Y43692D01*
X28264D01*
Y43698D01*
X28259D01*
Y43703D01*
X28253D01*
Y43709D01*
X28248D01*
Y43714D01*
X28242D01*
Y43720D01*
X28237D01*
Y43730D01*
X28231D01*
Y43736D01*
X28226D01*
Y43741D01*
X28220D01*
Y43747D01*
X28215D01*
Y43758D01*
X28209D01*
Y43763D01*
X28204D01*
Y43769D01*
X28198D01*
Y43780D01*
X28193D01*
Y43791D01*
X28187D01*
Y43796D01*
X28182D01*
Y43807D01*
X28177D01*
Y43818D01*
X28171D01*
Y43823D01*
X28166D01*
Y43834D01*
X28160D01*
Y43845D01*
X28155D01*
Y43873D01*
X28149D01*
Y43905D01*
X28177D01*
Y43900D01*
D02*
G37*
G36*
X29232Y43255D02*
X29237D01*
Y43249D01*
X29232D01*
Y43244D01*
X29227D01*
Y43238D01*
X29216D01*
Y43233D01*
X29210D01*
Y43227D01*
X29205D01*
Y43222D01*
X29199D01*
Y43216D01*
X29188D01*
Y43211D01*
X29183D01*
Y43205D01*
X29172D01*
Y43200D01*
X29166D01*
Y43195D01*
X29155D01*
Y43189D01*
X29150D01*
Y43184D01*
X29145D01*
Y43178D01*
X29134D01*
Y43173D01*
X29123D01*
Y43167D01*
X29112D01*
Y43162D01*
X29106D01*
Y43156D01*
X29095D01*
Y43151D01*
X29084D01*
Y43145D01*
X29073D01*
Y43140D01*
X29062D01*
Y43134D01*
X29057D01*
Y43129D01*
X29041D01*
Y43123D01*
X29030D01*
Y43118D01*
X29024D01*
Y42932D01*
X29019D01*
Y42927D01*
X29008D01*
Y42932D01*
X29002D01*
Y42937D01*
X28997D01*
Y42948D01*
X28991D01*
Y42954D01*
X28986D01*
Y42959D01*
X28980D01*
Y42965D01*
X28975D01*
Y42970D01*
X28970D01*
Y42976D01*
X28964D01*
Y42981D01*
X28959D01*
Y42992D01*
X28953D01*
Y43003D01*
X28948D01*
Y43009D01*
X28942D01*
Y43014D01*
X28937D01*
Y43025D01*
X28931D01*
Y43030D01*
X28926D01*
Y43041D01*
X28920D01*
Y43047D01*
X28915D01*
Y43063D01*
X28909D01*
Y43074D01*
X28882D01*
Y43069D01*
X28844D01*
Y43063D01*
X28756D01*
Y43069D01*
X28718D01*
Y43074D01*
X28702D01*
Y43080D01*
X28696D01*
Y43074D01*
X28691D01*
Y43063D01*
X28685D01*
Y43047D01*
X28680D01*
Y43041D01*
X28674D01*
Y43030D01*
X28669D01*
Y43025D01*
X28663D01*
Y43014D01*
X28658D01*
Y43009D01*
X28652D01*
Y43003D01*
X28647D01*
Y42992D01*
X28641D01*
Y42981D01*
X28636D01*
Y42976D01*
X28630D01*
Y42970D01*
X28625D01*
Y42965D01*
X28620D01*
Y42959D01*
X28614D01*
Y42954D01*
X28609D01*
Y42948D01*
X28603D01*
Y42937D01*
X28598D01*
Y42932D01*
X28592D01*
Y42927D01*
X28581D01*
Y42932D01*
X28576D01*
Y43123D01*
X28559D01*
Y43129D01*
X28548D01*
Y43134D01*
X28537D01*
Y43140D01*
X28527D01*
Y43145D01*
X28516D01*
Y43151D01*
X28505D01*
Y43156D01*
X28494D01*
Y43162D01*
X28488D01*
Y43167D01*
X28483D01*
Y43173D01*
X28466D01*
Y43178D01*
X28461D01*
Y43184D01*
X28450D01*
Y43189D01*
X28445D01*
Y43195D01*
X28439D01*
Y43200D01*
X28428D01*
Y43205D01*
X28423D01*
Y43211D01*
X28412D01*
Y43216D01*
X28401D01*
Y43222D01*
X28395D01*
Y43227D01*
X28390D01*
Y43233D01*
X28384D01*
Y43238D01*
X28373D01*
Y43244D01*
X28368D01*
Y43249D01*
X28363D01*
Y43255D01*
X28368D01*
Y43260D01*
X28390D01*
Y43255D01*
X28428D01*
Y43249D01*
X28472D01*
Y43244D01*
X28521D01*
Y43238D01*
X28587D01*
Y43233D01*
X28767D01*
Y43227D01*
X28833D01*
Y43233D01*
X29019D01*
Y43238D01*
X29079D01*
Y43244D01*
X29128D01*
Y43249D01*
X29172D01*
Y43255D01*
X29210D01*
Y43260D01*
X29232D01*
Y43255D01*
D02*
G37*
%LPC*%
G36*
X24260Y41978D02*
X24244D01*
X24227Y41975D01*
X24213Y41969D01*
X24200Y41962D01*
X24191Y41954D01*
X24193Y41944D01*
X24208Y41939D01*
X24224Y41936D01*
X24243Y41935D01*
X24260D01*
X24276Y41939D01*
X24315D01*
X24317Y41945D01*
X24309Y41954D01*
X24302Y41958D01*
X24288Y41968D01*
X24274Y41973D01*
X24260Y41978D01*
D02*
G37*
G36*
X24142Y43067D02*
X24131Y43056D01*
X24127Y43043D01*
X24123Y43022D01*
X24121Y42985D01*
X24122Y42965D01*
Y42946D01*
X24119Y42930D01*
X24121Y42910D01*
X24128Y42893D01*
X24151Y42889D01*
X24174Y42887D01*
X24192Y42891D01*
X24215Y42904D01*
X24228Y42924D01*
X24241Y42934D01*
X24248Y42949D01*
X24245Y42965D01*
X24244Y42985D01*
X24220Y43023D01*
X24199Y43032D01*
X24183Y43046D01*
X24169Y43055D01*
X24155Y43063D01*
X24142Y43067D01*
D02*
G37*
G36*
X24823Y42972D02*
X24808Y42967D01*
X24804Y42961D01*
Y42949D01*
X24805Y42934D01*
X24814Y42924D01*
X24823Y42910D01*
X24834Y42904D01*
X24858Y42887D01*
X24868Y42885D01*
X24875Y42877D01*
X24892Y42873D01*
X24906D01*
X24920Y42877D01*
X24925Y42887D01*
Y42899D01*
X24921Y42909D01*
X24919Y42919D01*
X24911Y42930D01*
X24905Y42940D01*
X24896Y42946D01*
X24885Y42952D01*
X24872Y42954D01*
X24859Y42961D01*
X24846Y42965D01*
X24835Y42971D01*
X24823Y42972D01*
D02*
G37*
G36*
X24414Y44010D02*
X24398D01*
X24381Y44008D01*
X24367Y44002D01*
X24354Y43995D01*
X24345Y43986D01*
X24347Y43977D01*
X24362Y43972D01*
X24378Y43969D01*
X24397Y43968D01*
X24414D01*
X24431Y43972D01*
X24469D01*
X24471Y43978D01*
X24463Y43986D01*
X24456Y43991D01*
X24443Y44001D01*
X24428Y44006D01*
X24414Y44010D01*
D02*
G37*
%LPD*%
D10*
X27764Y38336D02*
X27921Y38494D01*
Y38651D01*
X27764Y38808D01*
X27528D02*
Y38336D01*
X27213D01*
X27055Y38808D02*
X26741D01*
X26898D01*
Y38336D01*
X26583D02*
X26426Y38494D01*
Y38651D01*
X26583Y38808D01*
X25875Y38730D02*
X25953Y38808D01*
X26111D01*
X26190Y38730D01*
Y38651D01*
X26111Y38572D01*
X25953D01*
X25875Y38494D01*
Y38415D01*
X25953Y38336D01*
X26111D01*
X26190Y38415D01*
X25717Y38179D02*
Y38651D01*
X25481D01*
X25402Y38572D01*
Y38415D01*
X25481Y38336D01*
X25717D01*
X25245D02*
X25088D01*
X25166D01*
Y38651D01*
X25245D01*
X24537D02*
X24773D01*
X24851Y38572D01*
Y38415D01*
X24773Y38336D01*
X24537D01*
X24143D02*
X24300D01*
X24379Y38415D01*
Y38572D01*
X24300Y38651D01*
X24143D01*
X24064Y38572D01*
Y38494D01*
X24379D01*
X23120Y38730D02*
X23198Y38808D01*
X23356D01*
X23435Y38730D01*
Y38415D01*
X23356Y38336D01*
X23198D01*
X23120Y38415D01*
Y38572D01*
X23277D01*
X22962Y38336D02*
X22805D01*
X22884D01*
Y38651D01*
X22962D01*
X22569D02*
Y38336D01*
Y38494D01*
X22490Y38572D01*
X22411Y38651D01*
X22333D01*
X22096Y38336D02*
X21939D01*
X22018D01*
Y38808D01*
X22096D01*
X21703Y38336D02*
X21467D01*
X21388Y38415D01*
X21467Y38494D01*
X21624D01*
X21703Y38572D01*
X21624Y38651D01*
X21388D01*
M02*
